# xmcd
#
# Track frame offsets:
#	150
#	9682
#	18505
#	28437
#	41264
#	46196
#	62319
#	72987
#	91059
#	100477
#	109284
#	117566
#	132403
#	138600
#	146702
#	157580
#	164763
#	176340
#	185553
#	196196
#	209204
#	220609
#	233783
#	243121
#	252553
#	263198
#	274568
#	285920
#	297390
#	312247
#	323229
#	334595
#	345530
# Disc length: 4779 seconds
# Revision: 1
# Processed by: cddbd v1.5.2PL0 Copyright (c) Steve Scherf et al.
#
# Submitted via: libkcddb 0.31
#
DISCID=f112a921
DTITLE=Lester Flatt and Earl Scruggs - Anthology Bluegrass 1
DYEAR=1900
DGENRE=Bluegrass
TTITLE0=Earl's Breakdown
TTITLE1=Ain't Gonna Work Tomorrow
TTITLE2=Instrumental
TTITLE3=Head Over Heels
TTITLE4=Katy Hill
TTITLE5=Some Old Day
TTITLE6=Farewell Blues
TTITLE7=Cotton Eyed Joe
TTITLE8=Orange Blossom Special
TTITLE9=Crawdad Hole
TTITLE10=Foggy Mountain Special
TTITLE11=Six White Horses
TTITLE12=Billy In The Lowground
TTITLE13=Fiddle and Banjo
TTITLE14=All I Want Is You
TTITLE15=Katy Hill
TTITLE16=Before I Met You
TTITLE17=Dobro Instrumental
TTITLE18=Foggy Mountain Breakdown
TTITLE19=The Storie Of Bonnie And Clyde
TTITLE20=Petticoat Junction
TTITLE21=You Are My Flower
TTITLE22=The Ballad Of Jed Clampett
TTITLE23=John Henry
TTITLE24=Foggy Mountain Top
TTITLE25=Coal Miner's Blues
TTITLE26=Wabash Cannonball
TTITLE27=Jimmie Brown, The Newsboy
TTITLE28=Mother Prays Loud In Her Sleep
TTITLE29=You Can Feel It In Your Soul
TTITLE30=Gone Home
TTITLE31=Joy Bells
TTITLE32=He Took Your Place
EXTD=CD 1 of 4
EXTT0=
EXTT1=
EXTT2=
EXTT3=
EXTT4=
EXTT5=
EXTT6=
EXTT7=
EXTT8=
EXTT9=
EXTT10=
EXTT11=
EXTT12=
EXTT13=
EXTT14=
EXTT15=
EXTT16=
EXTT17=
EXTT18=
EXTT19=
EXTT20=
EXTT21=
EXTT22=
EXTT23=
EXTT24=
EXTT25=
EXTT26=
EXTT27=
EXTT28=
EXTT29=
EXTT30=
EXTT31=
EXTT32=
PLAYORDER=
